<?xml version="1.0" encoding="UTF-8" standalone="no"?>
<svg width="248px" height="248px" viewBox="0 0 248 248" version="1.1" xmlns="http://www.w3.org/2000/svg" xmlns:xlink="http://www.w3.org/1999/xlink" xmlns:sketch="http://www.bohemiancoding.com/sketch/ns">
    <!-- Generator: Sketch 3.3.2 (12043) - http://www.bohemiancoding.com/sketch -->
    <title>Artboard 1</title>
    <desc>Created with Sketch.</desc>
    <defs></defs>
    <g id="Page-1" stroke="none" stroke-width="1" fill="none" fill-rule="evenodd" sketch:type="MSPage">
        <g id="Artboard-1" sketch:type="MSArtboardGroup">
            <g id="FRZR-+-✱" sketch:type="MSLayerGroup" transform="translate(41.000000, 35.000000)">
                <path d="M15.176,151.28 L15.176,166 L0.264,166 L0.264,120.752 L33.416,120.752 L33.416,132.848 L15.176,132.848 L15.176,139.632 L30.728,139.632 L30.728,151.28 L15.176,151.28 Z M59.144,120.752 C62.9413523,120.752 66.0453213,121.135996 68.456,121.904 C70.8666787,122.672004 72.775993,123.759993 74.184,125.168 C75.592007,126.576007 76.562664,128.250657 77.096,130.192 C77.629336,132.133343 77.896,134.298655 77.896,136.688 C77.896,139.546681 77.3520054,142.181321 76.264,144.592 C75.1759946,147.002679 73.3306797,148.933326 70.728,150.384 L78.856,166 L62.792,166 L56.264,152.688 L54.152,152.688 L54.152,166 L39.24,166 L39.24,120.752 L59.144,120.752 Z M54.152,141.104 L57.352,141.104 C59.6986784,141.104 61.2239965,140.720004 61.928,139.952 C62.6320035,139.183996 62.984,138.11734 62.984,136.752 C62.984,135.38666 62.6320035,134.373337 61.928,133.712 C61.2239965,133.050663 59.6986784,132.72 57.352,132.72 L54.152,132.72 L54.152,141.104 Z M83.272,166 L83.272,153.84 L101.192,132.72 L97.672,132.848 L84.232,132.848 L84.232,120.752 L119.432,120.752 L119.432,132.848 L101.32,154.16 L106.44,153.776 L119.88,153.776 L119.88,166 L83.272,166 Z M145.608,120.752 C149.405352,120.752 152.509321,121.135996 154.92,121.904 C157.330679,122.672004 159.239993,123.759993 160.648,125.168 C162.056007,126.576007 163.026664,128.250657 163.56,130.192 C164.093336,132.133343 164.36,134.298655 164.36,136.688 C164.36,139.546681 163.816005,142.181321 162.728,144.592 C161.639995,147.002679 159.79468,148.933326 157.192,150.384 L165.32,166 L149.256,166 L142.728,152.688 L140.616,152.688 L140.616,166 L125.704,166 L125.704,120.752 L145.608,120.752 Z M140.616,141.104 L143.816,141.104 C146.162678,141.104 147.687996,140.720004 148.392,139.952 C149.096004,139.183996 149.448,138.11734 149.448,136.752 C149.448,135.38666 149.096004,134.373337 148.392,133.712 C147.687996,133.050663 146.162678,132.72 143.816,132.72 L140.616,132.72 L140.616,141.104 Z" id="FRZR" fill="#555555" sketch:type="MSShapeGroup"></path>
                <path d="M126,58.125 L116,75.5625 L91.8125,60.5625 L92.625,89 L72.625,89 L73.375,60.5625 L49.1875,75.5625 L39.25,58.125 L64.3125,44.5625 L39.25,31 L49.1875,13.625 L73.375,28.5625 L72.625,0.1875 L92.625,0.1875 L91.8125,28.5625 L116,13.625 L126,31 L100.9375,44.5625 L126,58.125 Z" id="✱" fill="#4990E2" sketch:type="MSShapeGroup"></path>
            </g>
        </g>
    </g>
</svg>